<svg width="136" height="26" viewBox="0 0 136 26" fill="none" xmlns="http://www.w3.org/2000/svg">
<g id="Icon" clip-path="url(#clip0_8360_22023)">
<path id="Vector" d="M21.6032 10.5377C21.5561 10.3808 21.4855 10.2395 21.3913 10.1139C21.2972 9.98839 21.1951 9.87852 21.0853 9.78435C20.9597 9.69019 20.8224 9.61563 20.6733 9.5607C20.5242 9.50577 20.379 9.47046 20.2378 9.45476L14.6347 9.07809L12.563 3.85174C12.5002 3.69479 12.4218 3.55746 12.3276 3.43975C12.2334 3.32204 12.1236 3.2161 11.998 3.12193C11.8725 3.04346 11.7351 2.98068 11.586 2.93359C11.4369 2.88651 11.2839 2.86297 11.127 2.86297C10.97 2.86297 10.817 2.88651 10.6679 2.93359C10.5188 2.98068 10.3815 3.04346 10.2559 3.12193C10.1303 3.2161 10.0205 3.32204 9.9263 3.43975C9.83214 3.55746 9.75366 3.69479 9.69088 3.85174L7.59563 9.10163L2.01615 9.45476C1.8749 9.47046 1.72972 9.50577 1.58062 9.5607C1.43152 9.61563 1.29419 9.69019 1.16863 9.78435C1.05877 9.87852 0.956752 9.98839 0.862584 10.1139C0.768415 10.2395 0.697789 10.3808 0.650705 10.5377C0.60362 10.679 0.580078 10.8281 0.580078 10.985C0.580078 11.1419 0.60362 11.2989 0.650705 11.4558C0.682094 11.6128 0.740949 11.754 0.827271 11.8796C0.913592 12.0052 1.01953 12.1229 1.14509 12.2327L5.42976 15.8582L4.15848 20.8492C4.1114 21.0218 4.09178 21.1944 4.09963 21.3671C4.10747 21.5397 4.14279 21.7124 4.20557 21.885C4.25265 22.042 4.33112 22.1911 4.44099 22.3323C4.55085 22.4736 4.67641 22.5913 4.81766 22.6854C4.94322 22.7953 5.0884 22.8777 5.25319 22.9326C5.41799 22.9876 5.57886 23.015 5.73581 23.015C5.90845 23.015 6.07717 22.9954 6.24196 22.9562C6.40676 22.9169 6.55978 22.8502 6.70103 22.7561L11.1034 19.9546C11.1191 19.9546 11.127 19.9546 11.127 19.9546C11.127 19.9546 11.1348 19.9546 11.1505 19.9546L15.8825 22.9679C16.008 23.0464 16.1454 23.1053 16.2945 23.1445C16.4436 23.1838 16.5966 23.2034 16.7535 23.2034C16.9105 23.2034 17.0596 23.1759 17.2008 23.121C17.3421 23.066 17.4755 22.9993 17.601 22.9209C17.7266 22.8267 17.8365 22.7168 17.9306 22.5913C18.0248 22.4657 18.1033 22.3245 18.166 22.1675C18.2131 22.0263 18.2406 21.8772 18.2484 21.7202C18.2563 21.5633 18.2445 21.4063 18.2131 21.2494L16.8477 15.7641L21.1088 12.2327C21.2344 12.1229 21.3403 12.0052 21.4266 11.8796C21.513 11.754 21.5718 11.6128 21.6032 11.4558C21.6503 11.2989 21.6738 11.1419 21.6738 10.985C21.6738 10.8281 21.6503 10.679 21.6032 10.5377Z" fill="#F3BB2E"/>
<path id="Vector_2" d="M48.6032 10.5377C48.5561 10.3808 48.4855 10.2395 48.3913 10.1139C48.2972 9.98839 48.1951 9.87852 48.0853 9.78435C47.9597 9.69019 47.8224 9.61563 47.6733 9.5607C47.5242 9.50577 47.379 9.47046 47.2378 9.45476L41.6347 9.07809L39.563 3.85174C39.5002 3.69479 39.4218 3.55746 39.3276 3.43975C39.2334 3.32204 39.1236 3.2161 38.998 3.12193C38.8725 3.04346 38.7351 2.98068 38.586 2.93359C38.4369 2.88651 38.2839 2.86297 38.127 2.86297C37.97 2.86297 37.817 2.88651 37.6679 2.93359C37.5188 2.98068 37.3815 3.04346 37.2559 3.12193C37.1303 3.2161 37.0205 3.32204 36.9263 3.43975C36.8321 3.55746 36.7537 3.69479 36.6909 3.85174L34.5956 9.10163L29.0161 9.45476C28.8749 9.47046 28.7297 9.50577 28.5806 9.5607C28.4315 9.61563 28.2942 9.69019 28.1686 9.78435C28.0588 9.87852 27.9568 9.98839 27.8626 10.1139C27.7684 10.2395 27.6978 10.3808 27.6507 10.5377C27.6036 10.679 27.5801 10.8281 27.5801 10.985C27.5801 11.1419 27.6036 11.2989 27.6507 11.4558C27.6821 11.6128 27.7409 11.754 27.8273 11.8796C27.9136 12.0052 28.0195 12.1229 28.1451 12.2327L32.4298 15.8582L31.1585 20.8492C31.1114 21.0218 31.0918 21.1944 31.0996 21.3671C31.1075 21.5397 31.1428 21.7124 31.2056 21.885C31.2527 22.042 31.3311 22.1911 31.441 22.3323C31.5509 22.4736 31.6764 22.5913 31.8177 22.6854C31.9432 22.7953 32.0884 22.8777 32.2532 22.9326C32.418 22.9876 32.5789 23.015 32.7358 23.015C32.9084 23.015 33.0772 22.9954 33.242 22.9562C33.4068 22.9169 33.5598 22.8502 33.701 22.7561L38.1034 19.9546C38.1191 19.9546 38.127 19.9546 38.127 19.9546C38.127 19.9546 38.1348 19.9546 38.1505 19.9546L42.8825 22.9679C43.008 23.0464 43.1454 23.1053 43.2945 23.1445C43.4436 23.1838 43.5966 23.2034 43.7535 23.2034C43.9105 23.2034 44.0596 23.1759 44.2008 23.121C44.3421 23.066 44.4755 22.9993 44.601 22.9209C44.7266 22.8267 44.8365 22.7168 44.9306 22.5913C45.0248 22.4657 45.1033 22.3245 45.166 22.1675C45.2131 22.0263 45.2406 21.8772 45.2484 21.7202C45.2563 21.5633 45.2445 21.4063 45.2131 21.2494L43.8477 15.7641L48.1088 12.2327C48.2344 12.1229 48.3403 12.0052 48.4266 11.8796C48.513 11.754 48.5718 11.6128 48.6032 11.4558C48.6503 11.2989 48.6738 11.1419 48.6738 10.985C48.6738 10.8281 48.6503 10.679 48.6032 10.5377Z" fill="#F3BB2E"/>
<path id="Vector_3" d="M75.6032 10.5377C75.5561 10.3808 75.4855 10.2395 75.3913 10.1139C75.2972 9.98839 75.1951 9.87852 75.0853 9.78435C74.9597 9.69019 74.8224 9.61563 74.6733 9.5607C74.5242 9.50577 74.379 9.47046 74.2378 9.45476L68.6347 9.07809L66.563 3.85174C66.5002 3.69479 66.4218 3.55746 66.3276 3.43975C66.2334 3.32204 66.1236 3.2161 65.998 3.12193C65.8725 3.04346 65.7351 2.98068 65.586 2.93359C65.4369 2.88651 65.2839 2.86297 65.127 2.86297C64.97 2.86297 64.817 2.88651 64.6679 2.93359C64.5188 2.98068 64.3815 3.04346 64.2559 3.12193C64.1303 3.2161 64.0205 3.32204 63.9263 3.43975C63.8321 3.55746 63.7537 3.69479 63.6909 3.85174L61.5956 9.10163L56.0161 9.45476C55.8749 9.47046 55.7297 9.50577 55.5806 9.5607C55.4315 9.61563 55.2942 9.69019 55.1686 9.78435C55.0588 9.87852 54.9568 9.98839 54.8626 10.1139C54.7684 10.2395 54.6978 10.3808 54.6507 10.5377C54.6036 10.679 54.5801 10.8281 54.5801 10.985C54.5801 11.1419 54.6036 11.2989 54.6507 11.4558C54.6821 11.6128 54.7409 11.754 54.8273 11.8796C54.9136 12.0052 55.0195 12.1229 55.1451 12.2327L59.4298 15.8582L58.1585 20.8492C58.1114 21.0218 58.0918 21.1944 58.0996 21.3671C58.1075 21.5397 58.1428 21.7124 58.2056 21.885C58.2527 22.042 58.3311 22.1911 58.441 22.3323C58.5509 22.4736 58.6764 22.5913 58.8177 22.6854C58.9432 22.7953 59.0884 22.8777 59.2532 22.9326C59.418 22.9876 59.5789 23.015 59.7358 23.015C59.9084 23.015 60.0772 22.9954 60.242 22.9562C60.4068 22.9169 60.5598 22.8502 60.701 22.7561L65.1034 19.9546C65.1191 19.9546 65.127 19.9546 65.127 19.9546C65.127 19.9546 65.1348 19.9546 65.1505 19.9546L69.8825 22.9679C70.008 23.0464 70.1454 23.1053 70.2945 23.1445C70.4436 23.1838 70.5966 23.2034 70.7535 23.2034C70.9105 23.2034 71.0596 23.1759 71.2008 23.121C71.3421 23.066 71.4755 22.9993 71.601 22.9209C71.7266 22.8267 71.8365 22.7168 71.9306 22.5913C72.0248 22.4657 72.1033 22.3245 72.166 22.1675C72.2131 22.0263 72.2406 21.8772 72.2484 21.7202C72.2563 21.5633 72.2445 21.4063 72.2131 21.2494L70.8477 15.7641L75.1088 12.2327C75.2344 12.1229 75.3403 12.0052 75.4266 11.8796C75.513 11.754 75.5718 11.6128 75.6032 11.4558C75.6503 11.2989 75.6738 11.1419 75.6738 10.985C75.6738 10.8281 75.6503 10.679 75.6032 10.5377Z" fill="#F3BB2E"/>
<path id="Vector_4" d="M102.603 10.5377C102.556 10.3808 102.485 10.2395 102.391 10.1139C102.297 9.98839 102.195 9.87852 102.085 9.78435C101.96 9.69019 101.822 9.61563 101.673 9.5607C101.524 9.50577 101.379 9.47046 101.238 9.45476L95.6347 9.07809L93.563 3.85174C93.5002 3.69479 93.4218 3.55746 93.3276 3.43975C93.2334 3.32204 93.1236 3.2161 92.998 3.12193C92.8725 3.04346 92.7351 2.98068 92.586 2.93359C92.4369 2.88651 92.2839 2.86297 92.127 2.86297C91.97 2.86297 91.817 2.88651 91.6679 2.93359C91.5188 2.98068 91.3815 3.04346 91.2559 3.12193C91.1303 3.2161 91.0205 3.32204 90.9263 3.43975C90.8321 3.55746 90.7537 3.69479 90.6909 3.85174L88.5956 9.10163L83.0161 9.45476C82.8749 9.47046 82.7297 9.50577 82.5806 9.5607C82.4315 9.61563 82.2942 9.69019 82.1686 9.78435C82.0588 9.87852 81.9568 9.98839 81.8626 10.1139C81.7684 10.2395 81.6978 10.3808 81.6507 10.5377C81.6036 10.679 81.5801 10.8281 81.5801 10.985C81.5801 11.1419 81.6036 11.2989 81.6507 11.4558C81.6821 11.6128 81.7409 11.754 81.8273 11.8796C81.9136 12.0052 82.0195 12.1229 82.1451 12.2327L86.4298 15.8582L85.1585 20.8492C85.1114 21.0218 85.0918 21.1944 85.0996 21.3671C85.1075 21.5397 85.1428 21.7124 85.2056 21.885C85.2527 22.042 85.3311 22.1911 85.441 22.3323C85.5509 22.4736 85.6764 22.5913 85.8177 22.6854C85.9432 22.7953 86.0884 22.8777 86.2532 22.9326C86.418 22.9876 86.5789 23.015 86.7358 23.015C86.9084 23.015 87.0772 22.9954 87.242 22.9562C87.4068 22.9169 87.5598 22.8502 87.701 22.7561L92.1034 19.9546C92.1191 19.9546 92.127 19.9546 92.127 19.9546C92.127 19.9546 92.1348 19.9546 92.1505 19.9546L96.8825 22.9679C97.008 23.0464 97.1454 23.1053 97.2945 23.1445C97.4436 23.1838 97.5966 23.2034 97.7535 23.2034C97.9105 23.2034 98.0596 23.1759 98.2008 23.121C98.3421 23.066 98.4755 22.9993 98.601 22.9209C98.7266 22.8267 98.8365 22.7168 98.9306 22.5913C99.0248 22.4657 99.1033 22.3245 99.1661 22.1675C99.2131 22.0263 99.2406 21.8772 99.2485 21.7202C99.2563 21.5633 99.2445 21.4063 99.2131 21.2494L97.8477 15.7641L102.109 12.2327C102.234 12.1229 102.34 12.0052 102.427 11.8796C102.513 11.754 102.572 11.6128 102.603 11.4558C102.65 11.2989 102.674 11.1419 102.674 10.985C102.674 10.8281 102.65 10.679 102.603 10.5377Z" fill="#F3BB2E"/>
<path id="Vector_5" d="M129.603 10.5377C129.556 10.3808 129.485 10.2395 129.391 10.1139C129.297 9.98839 129.195 9.87852 129.085 9.78435C128.96 9.69019 128.822 9.61563 128.673 9.5607C128.524 9.50577 128.379 9.47046 128.238 9.45476L122.635 9.07809L120.563 3.85174C120.5 3.69479 120.422 3.55746 120.328 3.43975C120.233 3.32204 120.124 3.2161 119.998 3.12193C119.872 3.04346 119.735 2.98068 119.586 2.93359C119.437 2.88651 119.284 2.86297 119.127 2.86297C118.97 2.86297 118.817 2.88651 118.668 2.93359C118.519 2.98068 118.381 3.04346 118.256 3.12193C118.13 3.2161 118.02 3.32204 117.926 3.43975C117.832 3.55746 117.754 3.69479 117.691 3.85174L115.596 9.10163L110.016 9.45476C109.875 9.47046 109.73 9.50577 109.581 9.5607C109.432 9.61563 109.294 9.69019 109.169 9.78435C109.059 9.87852 108.957 9.98839 108.863 10.1139C108.768 10.2395 108.698 10.3808 108.651 10.5377C108.604 10.679 108.58 10.8281 108.58 10.985C108.58 11.1419 108.604 11.2989 108.651 11.4558C108.682 11.6128 108.741 11.754 108.827 11.8796C108.914 12.0052 109.02 12.1229 109.145 12.2327L113.43 15.8582L112.158 20.8492C112.111 21.0218 112.092 21.1944 112.1 21.3671C112.107 21.5397 112.143 21.7124 112.206 21.885C112.253 22.042 112.331 22.1911 112.441 22.3323C112.551 22.4736 112.676 22.5913 112.818 22.6854C112.943 22.7953 113.088 22.8777 113.253 22.9326C113.418 22.9876 113.579 23.015 113.736 23.015C113.908 23.015 114.077 22.9954 114.242 22.9562C114.407 22.9169 114.56 22.8502 114.701 22.7561L119.103 19.9546C119.119 19.9546 119.127 19.9546 119.127 19.9546C119.127 19.9546 119.135 19.9546 119.15 19.9546L123.882 22.9679C124.008 23.0464 124.145 23.1053 124.294 23.1445C124.444 23.1838 124.597 23.2034 124.754 23.2034C124.91 23.2034 125.06 23.1759 125.201 23.121C125.342 23.066 125.475 22.9993 125.601 22.9209C125.727 22.8267 125.836 22.7168 125.931 22.5913C126.025 22.4657 126.103 22.3245 126.166 22.1675C126.213 22.0263 126.241 21.8772 126.248 21.7202C126.256 21.5633 126.245 21.4063 126.213 21.2494L124.848 15.7641L129.109 12.2327C129.234 12.1229 129.34 12.0052 129.427 11.8796C129.513 11.754 129.572 11.6128 129.603 11.4558C129.65 11.2989 129.674 11.1419 129.674 10.985C129.674 10.8281 129.65 10.679 129.603 10.5377Z" fill="#F3BB2E"/>
</g>
<defs>
<clipPath id="clip0_8360_22023">
<rect width="135" height="25" fill="white" transform="matrix(1 0 0 -1 0.580078 25.9099)"/>
</clipPath>
</defs>
</svg>
