<svg width="184" height="42" viewBox="0 0 184 42" fill="none" xmlns="http://www.w3.org/2000/svg">
<path d="M16.0321 11.0768C18.6248 12.2305 20.6746 14.3371 21.7569 16.9605C22.8749 19.7243 22.8749 22.8144 21.7569 25.5782C21.2217 26.8987 20.4433 28.107 19.4622 29.1402C18.4946 30.1573 17.3343 30.9717 16.049 31.5363C14.7241 32.117 13.2914 32.4108 11.8449 32.398C10.4042 32.4074 8.97761 32.1137 7.65769 31.5363C6.35551 30.9735 5.17723 30.1592 4.19035 29.1402C3.18966 28.1143 2.39265 26.9079 1.8416 25.585C1.27969 24.2218 0.993677 22.7607 1.0001 21.2863L1.0001 1.32698L5.28191 1.32698L5.28191 10.2015L11.828 10.2015C13.2754 10.1931 14.7083 10.4914 16.0321 11.0768ZM11.828 27.9979C12.695 28.0011 13.5533 27.8251 14.3491 27.4809C15.5478 26.9502 16.5648 26.0802 17.2747 24.9781C17.9846 23.8761 18.3562 22.5903 18.3436 21.2795C18.3502 20.3895 18.179 19.5071 17.8401 18.684C17.1894 17.0943 15.9478 15.8187 14.3761 15.1254C13.5855 14.7784 12.7319 14.5978 11.8685 14.5949L5.29542 14.5949L5.29543 21.266C5.28835 22.163 5.46071 23.0523 5.80235 23.8817C6.27853 25.0927 7.10763 26.1326 8.18208 26.8666C9.25654 27.6005 10.5268 27.9947 11.828 27.9979Z" fill="white"/>
<path d="M35.6335 10.1185C37.0818 10.109 38.5157 10.4061 39.841 10.9904C42.4304 12.1403 44.4796 14.2404 45.5658 16.8572C46.1316 18.2286 46.4166 19.6995 46.4039 21.1829L46.4039 32.2947L35.6335 32.2947C34.1917 32.304 32.764 32.0104 31.4429 31.4329C28.8101 30.279 26.7309 28.1441 25.6471 25.4816C24.5291 22.7179 24.5291 19.6277 25.6471 16.8639C26.1954 15.5586 26.9867 14.3693 27.9789 13.3594C28.9729 12.3581 30.1485 11.5552 31.4429 10.9938C32.7641 10.4151 34.1911 10.117 35.6335 10.1185ZM42.1221 27.9284L42.1221 21.1694C42.1303 20.2792 41.959 19.3965 41.6186 18.574C40.9772 16.9753 39.7348 15.6917 38.158 14.9985C37.3611 14.6539 36.5016 14.4779 35.6335 14.4814C34.7685 14.4798 33.912 14.6515 33.1144 14.9864C32.3169 15.3214 31.5946 15.8127 30.9901 16.4314C30.3962 17.0473 29.9218 17.768 29.591 18.5571C29.2521 19.3801 29.0809 20.2625 29.0874 21.1525C29.0567 22.9017 29.7212 24.5915 30.9352 25.8511C32.1492 27.1108 33.8134 27.8372 35.5625 27.871L35.6335 27.871L42.1221 27.9284Z" fill="white"/>
<path d="M59.3967 10.1185C60.845 10.1093 62.2789 10.4064 63.6042 10.9904C66.1985 12.139 68.2485 14.2459 69.3257 16.8707C69.8974 18.2405 70.1849 19.7122 70.1706 21.1965L70.1706 32.2947L59.3967 32.2947C57.9571 32.3043 56.5316 32.0107 55.2129 31.4329C53.9131 30.8677 52.7364 30.0537 51.749 29.0369C50.7505 28.0119 49.9578 26.805 49.4137 25.4816C48.2918 22.7186 48.2918 19.6269 49.4137 16.8639C49.9578 15.5555 50.7509 14.3653 51.7489 13.3594C52.7417 12.3566 53.9176 11.5535 55.2129 10.9937C56.5317 10.4148 57.9565 10.1167 59.3967 10.1185ZM65.8921 27.9284L65.8921 21.1694C65.8963 20.2789 65.7228 19.3966 65.3818 18.574C65.0563 17.7837 64.5838 17.0624 63.9895 16.4482C63.3992 15.8406 62.6954 15.3549 61.9178 15.0187C61.1228 14.6719 60.2641 14.4946 59.3967 14.4983C58.5317 14.4965 57.6751 14.6681 56.8776 15.0031C56.08 15.338 55.3577 15.8294 54.7533 16.4482C54.159 17.0624 53.6865 17.7837 53.361 18.574C53.0205 19.3965 52.8492 20.2792 52.8574 21.1694C52.8508 22.066 53.022 22.955 53.361 23.7851C53.6809 24.5803 54.154 25.3048 54.7533 25.9176C55.3564 26.5385 56.0783 27.0314 56.8761 27.367C57.674 27.7026 58.5312 27.874 59.3967 27.8709L65.8921 27.9284Z" fill="white"/>
<path d="M94.0316 1.22281L94.0316 21.1821C94.0391 22.6563 93.7543 24.1173 93.1935 25.4808C92.6529 26.8004 91.8687 28.0065 90.8819 29.036C89.9038 30.053 88.7347 30.8672 87.4416 31.432C86.1167 32.0039 84.689 32.2988 83.246 32.2988C81.803 32.2988 80.3752 32.0039 79.0504 31.432C76.4175 30.2782 74.3383 28.1432 73.2545 25.4808C72.1365 22.717 72.1365 19.6269 73.2545 16.8631C73.8016 15.5571 74.593 14.3676 75.5864 13.3585C76.5856 12.3542 77.7685 11.5511 79.0706 10.9929C80.3916 10.4186 81.8174 10.1251 83.2578 10.1311L89.7532 10.1311L89.7532 1.22615L94.0316 1.22281ZM83.2443 27.9005C84.1149 27.907 84.9772 27.7308 85.7755 27.3834C86.5498 27.0402 87.2517 26.5528 87.8438 25.9471C89.0701 24.665 89.7499 22.9563 89.7397 21.1821L89.7397 14.511L83.2443 14.511C82.3693 14.5076 81.503 14.6848 80.6995 15.0314C79.9129 15.3618 79.2013 15.8481 78.6076 16.4609C78.0126 17.0759 77.5381 17.7969 77.2085 18.5866C76.8696 19.4097 76.6985 20.292 76.705 21.1821C76.6733 22.9315 77.3376 24.6219 78.5518 25.8817C79.766 27.1415 81.4307 27.8676 83.1801 27.9005L83.2443 27.9005Z" fill="white"/>
<path d="M124.519 10.1157C125.967 10.1031 127.402 10.3967 128.729 10.9775C130.015 11.5413 131.181 12.3441 132.166 13.3431C133.163 14.3492 133.955 15.5394 134.498 16.8477C135.07 18.2175 135.357 19.6891 135.343 21.1734L135.343 32.2852L131.065 32.2852L131.065 21.1734C131.071 20.2827 130.897 19.4001 130.554 18.578C130.229 17.7877 129.756 17.0664 129.162 16.4522C128.557 15.8335 127.835 15.3422 127.038 15.0073C126.24 14.6724 125.384 14.5007 124.519 14.5023C123.65 14.4983 122.79 14.6756 121.994 15.0227C120.42 15.7107 119.177 16.9865 118.53 18.578C118.193 19.4015 118.022 20.2835 118.027 21.1734L118.027 32.2852L113.741 32.2852L113.741 21.1734C113.75 20.2832 113.578 19.4005 113.238 18.578C112.912 17.7877 112.44 17.0664 111.845 16.4522C111.251 15.8355 110.54 15.3427 109.754 15.0024C108.947 14.6581 108.079 14.4822 107.202 14.4854C106.335 14.4822 105.477 14.6582 104.681 15.0024C103.904 15.3411 103.2 15.8278 102.609 16.4353C102.015 17.0495 101.543 17.7708 101.217 18.561C100.876 19.3836 100.702 20.266 100.707 21.1565L100.707 32.2852L96.4282 32.2852L96.4282 21.1734C96.4139 19.6891 96.7014 18.2175 97.2731 16.8477C98.3531 14.2199 100.414 12.1157 103.018 10.9809C104.338 10.4069 105.763 10.1134 107.202 10.1191C108.921 10.1005 110.617 10.5154 112.133 11.3255C113.606 12.1247 114.877 13.2493 115.85 14.6138C116.828 13.2422 118.111 12.1165 119.598 11.3255C121.112 10.5187 122.803 10.1028 124.519 10.1157Z" fill="white"/>
<path d="M148.622 10.1185C150.07 10.1055 151.503 10.3992 152.829 10.9803C155.424 12.1283 157.475 14.2336 158.554 16.8572C159.126 18.227 159.413 19.6987 159.399 21.183L159.399 32.2947L148.622 32.2947C147.182 32.3037 145.757 32.0101 144.438 31.4329C143.139 30.866 141.963 30.0523 140.974 29.0369C139.97 28.0138 139.173 26.8067 138.625 25.4817C137.5 22.7193 137.5 19.6263 138.625 16.864C139.17 15.5564 139.961 14.3664 140.957 13.3594C141.955 12.3548 143.137 11.5516 144.438 10.9938C145.757 10.4154 147.182 10.1174 148.622 10.1185ZM155.117 27.9284L155.117 21.1694C155.123 20.2792 154.95 19.3968 154.61 18.574C154.283 17.7846 153.811 17.0636 153.218 16.4483C152.628 15.8407 151.924 15.3549 151.146 15.0188C150.35 14.6716 149.49 14.4944 148.622 14.4983C147.757 14.4967 146.9 14.6685 146.103 15.0034C145.305 15.3383 144.583 15.8296 143.979 16.4483C143.386 17.0636 142.913 17.7846 142.586 18.574C142.247 19.397 142.076 20.2794 142.083 21.1694C142.079 22.0657 142.25 22.9541 142.586 23.7851C142.909 24.579 143.381 25.3031 143.979 25.9176C144.582 26.5383 145.304 27.0312 146.101 27.3668C146.899 27.7024 147.756 27.8739 148.622 27.871L155.117 27.9284Z" fill="white"/>
<path d="M183.206 10.1648L183.206 30.1241C183.22 31.6061 182.932 33.0755 182.361 34.4431C181.817 35.7585 181.036 36.9626 180.056 37.9949C179.092 38.9939 177.945 39.7972 176.676 40.3606C175.35 40.9401 173.916 41.2337 172.469 41.2223L170.306 41.2223L170.306 36.829L172.469 36.829C173.763 36.8236 175.026 36.4295 176.094 35.698C177.162 34.9665 177.985 33.9312 178.457 32.7263C178.782 31.8923 178.938 31.0019 178.914 30.1072L178.914 30.0531C178.015 30.7847 176.998 31.3562 175.906 31.7428C173.422 32.6106 170.702 32.5141 168.285 31.4725C165.643 30.3231 163.554 28.1878 162.462 25.5212C161.894 24.1598 161.607 22.6977 161.617 21.2225L161.617 10.158L165.903 10.158L165.903 21.2225C165.867 22.968 166.527 24.6561 167.736 25.9154C168.945 27.1747 170.605 27.902 172.351 27.9375L172.442 27.9375C173.31 27.9441 174.171 27.7679 174.966 27.4205C176.155 26.8823 177.162 26.0096 177.863 24.909C178.563 23.8083 178.929 22.5273 178.914 21.2225L178.914 10.158L183.206 10.1648Z" fill="white"/>
</svg>
