<svg width="48" height="48" viewBox="0 0 48 48" fill="none" xmlns="http://www.w3.org/2000/svg">
<circle cx="24" cy="24" r="24" fill="#6016EB"/>
<path fill-rule="evenodd" clip-rule="evenodd" d="M21.0238 14.5604C21.1255 14.1029 21.5313 13.7773 22 13.7773H26C26.4687 13.7773 26.8745 14.1029 26.9762 14.5604L27.4165 16.5417C27.816 16.7307 28.1971 16.9516 28.5567 17.2012L30.494 16.5914C30.941 16.4507 31.4259 16.6394 31.6602 17.0453L33.6602 20.5094C33.8946 20.9153 33.8155 21.4295 33.4701 21.7463L31.9733 23.1193C31.991 23.3365 32 23.556 32 23.7773C32 23.9987 31.991 24.2182 31.9733 24.4353L33.4701 25.8083C33.8155 26.1252 33.8946 26.6394 33.6602 27.0453L31.6602 30.5094C31.4259 30.9153 30.941 31.104 30.494 30.9633L28.5567 30.3535C28.1972 30.6031 27.816 30.824 27.4165 31.013L26.9762 32.9943C26.8745 33.4518 26.4687 33.7773 26 33.7773H22C21.5313 33.7773 21.1255 33.4518 21.0238 32.9943L20.5835 31.013C20.184 30.824 19.8028 30.6031 19.4432 30.3535L17.5059 30.9633C17.0589 31.104 16.574 30.9153 16.3397 30.5094L14.3397 27.0453C14.1053 26.6394 14.1844 26.1252 14.5298 25.8083L16.0267 24.4353C16.009 24.2181 16 23.9987 16 23.7773C16 23.556 16.009 23.3366 16.0267 23.1194L14.5298 21.7463C14.1844 21.4295 14.1053 20.9153 14.3397 20.5094L16.3397 17.0453C16.574 16.6394 17.0589 16.4507 17.506 16.5914L19.4432 17.2012C19.8028 16.9516 20.184 16.7307 20.5835 16.5417L21.0238 14.5604ZM27.7071 22.4845C28.0976 22.0939 28.0976 21.4608 27.7071 21.0702C27.3166 20.6797 26.6834 20.6797 26.2929 21.0702L23 24.3631L21.7071 23.0702C21.3166 22.6797 20.6834 22.6797 20.2929 23.0702C19.9024 23.4608 19.9024 24.0939 20.2929 24.4845L22.2929 26.4845C22.6834 26.875 23.3166 26.875 23.7071 26.4845L27.7071 22.4845Z" fill="white"/>
</svg>
