<svg width="80" height="80" viewBox="0 0 80 80" fill="none" xmlns="http://www.w3.org/2000/svg">
<circle cx="40" cy="40" r="40" fill="#F4DCD8"/>
<path d="M26.6667 30.3333V35H53.3333V30.3333C53.3333 29.2288 52.4379 28.3333 51.3333 28.3333H46.6667H33.3333H28.6667C27.5621 28.3333 26.6667 29.2288 26.6667 30.3333Z" fill="#213D46"/>
<path d="M46.6667 28.3333H51.3333C52.4379 28.3333 53.3333 29.2288 53.3333 30.3333V35H26.6667V30.3333C26.6667 29.2288 27.5621 28.3333 28.6667 28.3333H33.3333M46.6667 28.3333V25M46.6667 28.3333H33.3333M33.3333 25V28.3333M26.6667 35.8333V53C26.6667 54.1046 27.5621 55 28.6667 55H51.3333C52.4379 55 53.3333 54.1046 53.3333 53V35.8333" stroke="#213D46" stroke-width="3" stroke-linecap="round" stroke-linejoin="round"/>
</svg>
